<svg xmlns="http://www.w3.org/2000/svg" viewBox="0 0 64 64" aria-hidden="true">
  <defs>
    <linearGradient id="leafG" x1="10" y1="6" x2="54" y2="60" gradientUnits="userSpaceOnUse">
      <stop offset="0" stop-color="#a3e635"/>
      <stop offset="1" stop-color="#10b981"/>
    </linearGradient>
  </defs>

  <path fill="url(#leafG)" fill-rule="evenodd" d="
    M32 5.5
    C46.6 9.6 57 24.1 55.2 39.1
    C53.4 54.4 42.8 61 32 61
    C21.2 61 10.6 54.4 8.8 39.1
    C7 24.1 17.4 9.6 32 5.5
    Z

    M27.8 51.5
    C28.7 44.6 29.2 39.0 31.8 33.5
    C33.6 29.7 35.0 27.6 35.8 25.8
    C36.4 24.6 37.6 24.9 37.8 26.2
    C37.6 28.8 36.0 31.8 34.4 35.2
    C32.1 40.3 31.2 45.7 31.2 52.2
    C30.9 53.6 29.0 53.8 27.8 51.5
    Z

    M31.7 47.3
    A3 3 0 1 0 25.7 47.3
    A3 3 0 1 0 31.7 47.3
    Z

    M36.3 42.4
    A3 3 0 1 0 30.3 42.4
    A3 3 0 1 0 36.3 42.4
    Z

    M32.0 46.7
    L33.4 45.1
    A2 2 0 0 1 30.4 42.5
    L29.0 44.1
    A2 2 0 0 1 32.0 46.7
    Z
  "/>
</svg>
